<svg width="19" height="18" viewBox="0 0 19 18" fill="none" xmlns="http://www.w3.org/2000/svg">
<g clip-path="url(#clip0_299_2631)">
<path d="M16.4844 2.454L14.7047 0.68475C14.4861 0.468724 14.2249 0.29688 13.9364 0.179296C13.6479 0.0617118 13.338 0.000754823 13.0247 0L9.35065 0C8.45283 0.00109089 7.58285 0.300068 6.88734 0.846539C6.19183 1.39301 5.71332 2.15356 5.53247 3H5.45454C4.42161 3.00119 3.43134 3.39666 2.70095 4.09966C1.97056 4.80267 1.55968 5.7558 1.55844 6.75V14.25C1.55968 15.2442 1.97056 16.1973 2.70095 16.9003C3.43134 17.6033 4.42161 17.9988 5.45454 18H10.1299C11.1628 17.9988 12.1531 17.6033 12.8835 16.9003C13.6139 16.1973 14.0247 15.2442 14.026 14.25V14.175C14.9054 14.0009 15.6956 13.5404 16.2633 12.8709C16.8311 12.2015 17.1417 11.3642 17.1429 10.5V4.02C17.144 3.43531 16.9077 2.87334 16.4844 2.454V2.454ZM10.1299 16.5H5.45454C4.83456 16.5 4.23996 16.2629 3.80157 15.841C3.36317 15.419 3.11688 14.8467 3.11688 14.25V6.75C3.11688 6.15326 3.36317 5.58097 3.80157 5.15901C4.23996 4.73705 4.83456 4.5 5.45454 4.5V10.5C5.45578 11.4942 5.86666 12.4473 6.59705 13.1503C7.32745 13.8533 8.31772 14.2488 9.35065 14.25H12.4675C12.4675 14.8467 12.2212 15.419 11.7828 15.841C11.3444 16.2629 10.7499 16.5 10.1299 16.5ZM13.2468 12.75H9.35065C8.73066 12.75 8.13607 12.5129 7.69767 12.091C7.25927 11.669 7.01299 11.0967 7.01299 10.5V3.75C7.01299 3.15326 7.25927 2.58097 7.69767 2.15901C8.13607 1.73705 8.73066 1.5 9.35065 1.5H12.4675V3C12.4675 3.39782 12.6317 3.77936 12.924 4.06066C13.2163 4.34196 13.6126 4.5 14.026 4.5H15.5844V10.5C15.5844 11.0967 15.3381 11.669 14.8997 12.091C14.4613 12.5129 13.8667 12.75 13.2468 12.75V12.75Z" fill="#9C9C9C"/>
</g>
<defs>
<clipPath id="clip0_299_2631">
<rect width="18.7013" height="18" fill="white"/>
</clipPath>
</defs>
</svg>
