<svg width="11" height="14" viewBox="0 0 11 14" fill="none" xmlns="http://www.w3.org/2000/svg">
<g clip-path="url(#clip0_309_2362)">
<path d="M1.83333 3.49995C1.65263 3.50055 1.47363 3.45555 1.30669 3.36753C1.13975 3.27952 0.988176 3.15025 0.860743 2.9872L0.153076 2.1857C0.0622728 2.08266 0.00734858 1.93794 0.00038629 1.78336C-0.006576 1.62878 0.034994 1.47702 0.115951 1.36145C0.196909 1.24588 0.310622 1.17598 0.432075 1.16712C0.553528 1.15826 0.672773 1.21116 0.763576 1.3142L1.49003 2.13903C1.53162 2.19847 1.58233 2.24645 1.63903 2.28002C1.69573 2.31359 1.75723 2.33203 1.81974 2.33421C1.88225 2.3364 1.94445 2.32228 2.00252 2.29273C2.06058 2.26317 2.11328 2.21881 2.15737 2.16237L3.8092 0.160951C3.89802 0.0603082 4.0141 0.00754501 4.13292 0.0138053C4.25174 0.0200657 4.364 0.0848594 4.44598 0.194501C4.52797 0.304143 4.57325 0.450047 4.57228 0.601397C4.57131 0.752747 4.52416 0.897692 4.44078 1.00562L2.79583 2.99712C2.66922 3.15731 2.51905 3.28417 2.3539 3.37045C2.18875 3.45673 2.01185 3.50074 1.83333 3.49995V3.49995ZM11 2.33328C11 2.17857 10.9517 2.0302 10.8658 1.9208C10.7798 1.81141 10.6632 1.74995 10.5417 1.74995H5.95833C5.83677 1.74995 5.72019 1.81141 5.63424 1.9208C5.54828 2.0302 5.49999 2.17857 5.49999 2.33328C5.49999 2.48799 5.54828 2.63637 5.63424 2.74576C5.72019 2.85516 5.83677 2.91662 5.95833 2.91662H10.5417C10.6632 2.91662 10.7798 2.85516 10.8658 2.74576C10.9517 2.63637 11 2.48799 11 2.33328ZM2.79583 7.66378L4.44078 5.67228C4.4867 5.62026 4.52392 5.55702 4.55023 5.48631C4.57655 5.41561 4.59142 5.33889 4.59396 5.26072C4.5965 5.18255 4.58667 5.10453 4.56503 5.0313C4.5434 4.95807 4.51041 4.89113 4.46804 4.83446C4.42566 4.77778 4.37476 4.73254 4.31836 4.70141C4.26197 4.67029 4.20123 4.65392 4.13976 4.65328C4.07829 4.65264 4.01735 4.66775 3.96056 4.6977C3.90377 4.72765 3.8523 4.77183 3.8092 4.82762L2.1592 6.82903C2.07195 6.93522 1.95588 6.99448 1.83516 6.99448C1.71444 6.99448 1.59837 6.93522 1.51112 6.82903L0.782368 5.90445C0.695925 5.79819 0.580149 5.73939 0.459976 5.74072C0.339802 5.74205 0.224847 5.8034 0.139868 5.91156C0.0548891 6.01971 0.00668666 6.16602 0.00564238 6.31897C0.00459811 6.47191 0.0507955 6.61927 0.134285 6.72928L0.860743 7.65387C1.11726 7.98042 1.46479 8.1647 1.8276 8.16656C2.19041 8.16842 2.53909 7.9877 2.79766 7.66378H2.79583ZM11 6.99995C11 6.84524 10.9517 6.69687 10.8658 6.58747C10.7798 6.47808 10.6632 6.41662 10.5417 6.41662H5.95833C5.83677 6.41662 5.72019 6.47808 5.63424 6.58747C5.54828 6.69687 5.49999 6.84524 5.49999 6.99995C5.49999 7.15466 5.54828 7.30303 5.63424 7.41243C5.72019 7.52183 5.83677 7.58328 5.95833 7.58328H10.5417C10.6632 7.58328 10.7798 7.52183 10.8658 7.41243C10.9517 7.30303 11 7.15466 11 6.99995ZM2.79583 12.3305L4.43895 10.339C4.48486 10.2869 4.52208 10.2237 4.5484 10.153C4.57471 10.0823 4.58959 10.0056 4.59213 9.92739C4.59467 9.84922 4.58483 9.7712 4.5632 9.69797C4.54157 9.62474 4.50858 9.5578 4.4662 9.50112C4.42383 9.44445 4.37293 9.3992 4.31653 9.36808C4.26013 9.33695 4.19939 9.32059 4.13792 9.31995C4.07646 9.31931 4.01551 9.33441 3.95873 9.36436C3.90194 9.39431 3.85047 9.4385 3.80737 9.49428L2.15737 11.4957C2.11328 11.5521 2.06058 11.5965 2.00252 11.6261C1.94445 11.6556 1.88225 11.6697 1.81974 11.6675C1.75723 11.6654 1.69573 11.6469 1.63903 11.6134C1.58233 11.5798 1.53162 11.5318 1.49003 11.4724L0.763576 10.6475C0.672773 10.5445 0.553528 10.4916 0.432075 10.5005C0.310622 10.5093 0.196909 10.5792 0.115951 10.6948C0.034994 10.8104 -0.006576 10.9621 0.00038629 11.1167C0.00734858 11.2713 0.0622728 11.416 0.153076 11.519L0.860743 12.3205C1.11726 12.6471 1.46479 12.8314 1.8276 12.8332C2.19041 12.8351 2.53909 12.6544 2.79766 12.3305H2.79583ZM11 11.6666C11 11.5119 10.9517 11.3635 10.8658 11.2541C10.7798 11.1447 10.6632 11.0833 10.5417 11.0833H5.95833C5.83677 11.0833 5.72019 11.1447 5.63424 11.2541C5.54828 11.3635 5.49999 11.5119 5.49999 11.6666C5.49999 11.8213 5.54828 11.9697 5.63424 12.0791C5.72019 12.1885 5.83677 12.25 5.95833 12.25H10.5417C10.6632 12.25 10.7798 12.1885 10.8658 12.0791C10.9517 11.9697 11 11.8213 11 11.6666Z" fill="#A3A29E"/>
</g>
<defs>
<clipPath id="clip0_309_2362">
<rect width="11" height="14" fill="white"/>
</clipPath>
</defs>
</svg>
