<svg width="7" height="4" viewBox="0 0 7 4" fill="none" xmlns="http://www.w3.org/2000/svg">
<path d="M0.172645 3.83206C0.0575483 3.7201 0 3.57761 0 3.40458C0 3.23155 0.0575483 3.08906 0.172645 2.9771L3.06054 0.167939C3.12332 0.10687 3.19133 0.0635116 3.26457 0.0378628C3.33782 0.012621 3.41629 0 3.5 0C3.58371 0 3.6649 0.0152671 3.74359 0.0458014C3.82185 0.0763358 3.88714 0.117048 3.93946 0.167939L6.82735 2.9771C6.94245 3.08906 7 3.23155 7 3.40458C7 3.57761 6.94245 3.7201 6.82735 3.83206C6.71226 3.94402 6.56577 4 6.38789 4C6.21001 4 6.06353 3.94402 5.94843 3.83206L3.5 1.45038L1.05157 3.83206C0.936472 3.94402 0.789985 4 0.612108 4C0.43423 4 0.287743 3.94402 0.172645 3.83206Z" fill="#A3A29E"/>
</svg>
