<svg width="13" height="16" viewBox="0 0 13 16" fill="none" xmlns="http://www.w3.org/2000/svg">
<path d="M7.22337 5.25123C7.22337 5.05348 7.27947 4.86016 7.38457 4.69573C7.48968 4.5313 7.63906 4.40315 7.81385 4.32747C7.98863 4.25179 8.18095 4.23199 8.3665 4.27057C8.55205 4.30915 8.72248 4.40438 8.85625 4.54421C8.99003 4.68405 9.08113 4.86221 9.11803 5.05617C9.15494 5.25012 9.136 5.45116 9.0636 5.63387C8.99121 5.81657 8.8686 5.97273 8.71131 6.0826C8.55401 6.19246 8.36907 6.25111 8.17989 6.25111C7.92621 6.25111 7.68291 6.14576 7.50353 5.95825C7.32415 5.77074 7.22337 5.51641 7.22337 5.25123ZM4.83207 6.25111C5.02125 6.25111 5.20618 6.19246 5.36348 6.0826C5.52078 5.97273 5.64338 5.81657 5.71578 5.63387C5.78817 5.45116 5.80712 5.25012 5.77021 5.05617C5.7333 4.86221 5.6422 4.68405 5.50843 4.54421C5.37466 4.40438 5.20422 4.30915 5.01867 4.27057C4.83313 4.23199 4.6408 4.25179 4.46602 4.32747C4.29124 4.40315 4.14185 4.5313 4.03675 4.69573C3.93164 4.86016 3.87554 5.05348 3.87554 5.25123C3.87554 5.51641 3.97632 5.77074 4.1557 5.95825C4.33509 6.14576 4.57838 6.25111 4.83207 6.25111ZM12 6.75104V9.25073C12 10.7755 11.4205 12.2379 10.3891 13.3161C9.35764 14.3943 7.95869 15 6.5 15C5.04131 15 3.64236 14.3943 2.61091 13.3161C1.57947 12.2379 1 10.7755 1 9.25073V6.75104C0.998556 5.35141 1.48772 3.99972 2.375 2.95152L1.70544 2.3016C1.56591 2.1657 1.48375 1.97742 1.47702 1.77819C1.47029 1.57896 1.53955 1.38509 1.66957 1.23924C1.79958 1.09339 1.9797 1.0075 2.17029 1.00047C2.36089 0.993437 2.54634 1.06584 2.68587 1.20174L3.46305 1.9579C4.3636 1.33443 5.41985 1.00196 6.5 1.00196C7.58015 1.00196 8.6364 1.33443 9.53696 1.9579L10.3141 1.20174C10.3832 1.13445 10.4643 1.08204 10.5528 1.0475C10.6412 1.01297 10.7353 0.996986 10.8297 1.00047C10.9241 1.00395 11.0169 1.02683 11.1028 1.0678C11.1887 1.10876 11.2661 1.16702 11.3304 1.23924C11.3948 1.31146 11.4449 1.39622 11.478 1.4887C11.511 1.58117 11.5263 1.67954 11.523 1.77819C11.5197 1.87684 11.4978 1.97384 11.4586 2.06364C11.4194 2.15345 11.3636 2.23431 11.2946 2.3016L10.625 2.95152C11.5123 3.99972 12.0014 5.35141 12 6.75104ZM6.5 2.50158C5.42232 2.50323 4.38924 2.95147 3.62721 3.74804C2.86517 4.54461 2.43637 5.62452 2.43479 6.75104V7.25098H10.5652V6.75104C10.5636 5.62452 10.1348 4.54461 9.3728 3.74804C8.61076 2.95147 7.57768 2.50323 6.5 2.50158ZM10.5652 9.25073V8.75079H2.43479V9.25073C2.43479 10.3778 2.86308 11.4586 3.62546 12.2556C4.38783 13.0525 5.42184 13.5002 6.5 13.5002C7.57816 13.5002 8.61217 13.0525 9.37454 12.2556C10.1369 11.4586 10.5652 10.3778 10.5652 9.25073Z" fill="#FF676E" stroke="#FF676E" stroke-width="0.3"/>
</svg>
