<svg width="14" height="14" viewBox="0 0 14 14" fill="none" xmlns="http://www.w3.org/2000/svg">
<path d="M13.4872 5.28095L9.06266 0.853126C8.51506 0.306793 7.7733 0 7 0C6.2267 0 5.48494 0.306793 4.93734 0.853126L0.512757 5.28095C0.349671 5.44308 0.220373 5.636 0.132355 5.84851C0.0443375 6.06102 -0.000647733 6.2889 7.04636e-06 6.51894V12.249C7.04636e-06 12.7134 0.184381 13.1587 0.51257 13.4871C0.840758 13.8155 1.28588 14 1.75001 14H12.25C12.7141 14 13.1592 13.8155 13.4874 13.4871C13.8156 13.1587 14 12.7134 14 12.249V6.51894C14.0006 6.2889 13.9557 6.06102 13.8676 5.84851C13.7796 5.636 13.6503 5.44308 13.4872 5.28095ZM8.75 12.8326H5.25V10.5364C5.25 10.072 5.43438 9.62663 5.76256 9.29825C6.09075 8.96986 6.53587 8.78538 7 8.78538C7.46413 8.78538 7.90925 8.96986 8.23744 9.29825C8.56562 9.62663 8.75 10.072 8.75 10.5364V12.8326ZM12.8333 12.249C12.8333 12.4038 12.7719 12.5522 12.6625 12.6617C12.5531 12.7711 12.4047 12.8326 12.25 12.8326H9.91666V10.5364C9.91666 9.76241 9.60937 9.0201 9.06239 8.4728C8.51541 7.92549 7.77355 7.61801 7 7.61801C6.22645 7.61801 5.48459 7.92549 4.93761 8.4728C4.39063 9.0201 4.08334 9.76241 4.08334 10.5364V12.8326H1.75001C1.5953 12.8326 1.44692 12.7711 1.33753 12.6617C1.22813 12.5522 1.16667 12.4038 1.16667 12.249V6.51894C1.16721 6.36425 1.22862 6.216 1.33759 6.10627L5.76217 1.6802C6.09099 1.35272 6.53606 1.16887 7 1.16887C7.46395 1.16887 7.90901 1.35272 8.23783 1.6802L12.6624 6.10802C12.771 6.21732 12.8323 6.36486 12.8333 6.51894V12.249Z" fill="#FF676E"/>
</svg>
