<svg width="521" height="874" viewBox="0 0 521 874" fill="none" xmlns="http://www.w3.org/2000/svg">
<g clip-path="url(#clip0_2168_1455)">
<path d="M5.04535 873.035L518.433 349.16C519.474 348.103 520.056 346.683 520.056 345.205L521 5.86662C521.002 5.10627 520.849 4.35338 520.55 3.65347C520.25 2.95355 519.811 2.32115 519.259 1.79445C518.727 1.26386 518.095 0.84283 517.399 0.55554C516.703 0.26825 515.956 0.120361 515.202 0.120361C514.448 0.120361 513.702 0.26825 513.006 0.55554C512.309 0.84283 511.677 1.26386 511.145 1.79445L2.41937 520.923C1.37854 521.98 0.796082 523.4 0.796631 524.878L-6.10352e-05 871.042C0.0137939 871.617 0.197449 872.174 0.528015 872.646C0.858643 873.118 1.32166 873.482 1.85938 873.695C2.39716 873.907 2.98584 873.958 3.55231 873.84C4.11877 873.723 4.638 873.443 5.04535 873.035Z" fill="url(#paint0_linear_2168_1455)"/>
<path d="M0.76709 477.47C0.750977 478.064 0.917328 478.649 1.24405 479.147C1.57077 479.646 2.04242 480.033 2.59631 480.259C3.15021 480.485 3.76021 480.538 4.3452 480.411C4.93019 480.284 5.46254 479.984 5.87151 479.55L259.261 221.011H1.50473L0.76709 477.47Z" fill="url(#paint1_linear_2168_1455)"/>
<path d="M1.59351 221.04H259.35L83.9126 51.5028C83.5092 51.098 83.029 50.7767 82.4998 50.5573C81.9706 50.338 81.4028 50.2251 80.8293 50.2251C80.2558 50.2251 79.688 50.338 79.1588 50.5573C78.6295 50.7767 78.1494 51.098 77.746 51.5028L1.8295 128.933L1.59351 221.04Z" fill="url(#paint2_linear_2168_1455)"/>
</g>
<defs>
<linearGradient id="paint0_linear_2168_1455" x1="600.546" y1="77.9646" x2="-93.1012" y2="816.725" gradientUnits="userSpaceOnUse">
<stop stop-color="#FF5F6D"/>
<stop offset="1" stop-color="#FFC371"/>
</linearGradient>
<linearGradient id="paint1_linear_2168_1455" x1="-44.7297" y1="410.821" x2="139.279" y2="208.693" gradientUnits="userSpaceOnUse">
<stop stop-color="#FFC371"/>
<stop offset="1" stop-color="#FF5F6D"/>
</linearGradient>
<linearGradient id="paint2_linear_2168_1455" x1="-10.4446" y1="86.9512" x2="165.032" y2="252.019" gradientUnits="userSpaceOnUse">
<stop offset="0.01" stop-color="#FFC371"/>
<stop offset="0.77" stop-color="#FF5F6D"/>
</linearGradient>
<clipPath id="clip0_2168_1455">
<rect width="521" height="873.936" fill="white" transform="matrix(-1 0 0 1 521 0)"/>
</clipPath>
</defs>
</svg>
