<svg width="13" height="15" viewBox="0 0 13 15" fill="none" xmlns="http://www.w3.org/2000/svg">
<g clip-path="url(#clip0_301_1941)">
<path d="M9.20825 8.75001C9.20825 8.91577 9.15118 9.07475 9.0496 9.19196C8.94802 9.30917 8.81024 9.37501 8.66659 9.37501H4.33325C4.18959 9.37501 4.05182 9.30917 3.95024 9.19196C3.84865 9.07475 3.79159 8.91577 3.79159 8.75001C3.79159 8.58425 3.84865 8.42528 3.95024 8.30807C4.05182 8.19086 4.18959 8.12501 4.33325 8.12501H8.66659C8.81024 8.12501 8.94802 8.19086 9.0496 8.30807C9.15118 8.42528 9.20825 8.58425 9.20825 8.75001ZM7.04159 10.625H4.33325C4.18959 10.625 4.05182 10.6909 3.95024 10.8081C3.84865 10.9253 3.79159 11.0843 3.79159 11.25C3.79159 11.4158 3.84865 11.5747 3.95024 11.692C4.05182 11.8092 4.18959 11.875 4.33325 11.875H7.04159C7.18524 11.875 7.32302 11.8092 7.4246 11.692C7.52618 11.5747 7.58325 11.4158 7.58325 11.25C7.58325 11.0843 7.52618 10.9253 7.4246 10.8081C7.32302 10.6909 7.18524 10.625 7.04159 10.625ZM11.9166 6.55314V11.875C11.9157 12.7035 11.6301 13.4978 11.1224 14.0836C10.6147 14.6695 9.92628 14.999 9.20825 15H3.79159C3.07355 14.999 2.38518 14.6695 1.87745 14.0836C1.36973 13.4978 1.08411 12.7035 1.08325 11.875V3.12501C1.08411 2.29652 1.36973 1.50224 1.87745 0.916402C2.38518 0.330566 3.07355 0.00100682 3.79159 1.44054e-05H6.23721C6.73534 -0.00146492 7.22878 0.111007 7.689 0.330926C8.14922 0.550846 8.5671 0.873851 8.91846 1.28126L10.8056 3.46001C11.1589 3.86516 11.439 4.34718 11.6297 4.87812C11.8204 5.40907 11.9179 5.9784 11.9166 6.55314V6.55314ZM8.15254 2.16501C7.98207 1.97449 7.79067 1.81059 7.58325 1.67751V4.37501C7.58325 4.54077 7.64032 4.69975 7.7419 4.81696C7.84349 4.93417 7.98126 5.00001 8.12492 5.00001H10.4628C10.3474 4.76076 10.2051 4.54011 10.0397 4.34376L8.15254 2.16501ZM10.8333 6.55314C10.8333 6.45001 10.8159 6.35126 10.8078 6.25001H8.12492C7.69394 6.25001 7.28062 6.05247 6.97587 5.70084C6.67112 5.34921 6.49992 4.8723 6.49992 4.37501V1.27939C6.41217 1.27001 6.32604 1.25001 6.23721 1.25001H3.79159C3.36061 1.25001 2.94728 1.44756 2.64254 1.79919C2.33779 2.15082 2.16659 2.62773 2.16659 3.12501V11.875C2.16659 12.3723 2.33779 12.8492 2.64254 13.2008C2.94728 13.5525 3.36061 13.75 3.79159 13.75H9.20825C9.63923 13.75 10.0526 13.5525 10.3573 13.2008C10.662 12.8492 10.8333 12.3723 10.8333 11.875V6.55314Z" fill="#FF676E"/>
</g>
<defs>
<clipPath id="clip0_301_1941">
<rect width="13" height="15" fill="white"/>
</clipPath>
</defs>
</svg>
