<svg width="14" height="14" viewBox="0 0 14 14" fill="none" xmlns="http://www.w3.org/2000/svg">
<path d="M6.24154 13C5.73698 13 5.31146 12.6241 5.24918 12.1234L5.16974 11.4847C5.13875 11.2355 4.96817 11.0312 4.75403 10.9V10.9V10.9C4.53982 10.7692 4.27641 10.7348 4.04519 10.8324L3.45609 11.0811C2.99104 11.2775 2.45255 11.0965 2.20057 10.6591L1.43908 9.3372C1.18801 8.90137 1.29972 8.34689 1.69996 8.04228L2.37536 7.52825C2.47536 7.45215 2.52239 7.32786 2.52239 7.2022V7.2022V6.7972V6.7972C2.52239 6.67191 2.47554 6.54799 2.37584 6.47211L1.69996 5.95772C1.29972 5.65311 1.18801 5.09863 1.43908 4.6628L2.20057 3.34092C2.45255 2.9035 2.99104 2.72248 3.45609 2.91885L4.03963 3.16526C4.2743 3.26436 4.54144 3.22883 4.76119 3.1V3.1V3.1C4.97525 2.97451 5.13829 2.76811 5.16892 2.52188L5.24918 1.87657C5.31146 1.37587 5.73698 1 6.24154 1H7.75847C8.26302 1 8.68854 1.37587 8.75082 1.87657L8.83019 2.51473C8.86123 2.76429 9.03194 2.96893 9.24657 3.1V3.1V3.1C9.46031 3.23098 9.72341 3.26532 9.95435 3.1678L10.5439 2.91885C11.009 2.72248 11.5474 2.9035 11.7994 3.34092L12.5609 4.6628C12.812 5.09863 12.7003 5.65311 12.3 5.95772L11.6242 6.47211C11.5245 6.54799 11.4776 6.67191 11.4776 6.7972V6.7972V7.2022V7.2022C11.4776 7.32624 11.5127 7.45442 11.6114 7.52954L12.2851 8.04228C12.6854 8.34689 12.7971 8.90137 12.546 9.3372L11.7859 10.6567C11.5333 11.0952 10.9931 11.2759 10.5275 11.0776L9.95988 10.8359C9.72562 10.7361 9.45846 10.7712 9.23881 10.9V10.9V10.9C9.02475 11.0255 8.86171 11.2319 8.83108 11.4781L8.75082 12.1234C8.68854 12.6241 8.26302 13 7.75846 13H6.24154ZM7.02985 9.1C7.60697 9.1 8.0995 8.895 8.50746 8.485C8.91542 8.075 9.1194 7.58 9.1194 7C9.1194 6.42 8.91542 5.925 8.50746 5.515C8.0995 5.105 7.60697 4.9 7.02985 4.9C6.44279 4.9 5.94766 5.105 5.54448 5.515C5.14169 5.925 4.9403 6.42 4.9403 7C4.9403 7.58 5.14169 8.075 5.54448 8.485C5.94766 8.895 6.44279 9.1 7.02985 9.1Z" stroke="#FF676E"/>
</svg>
