<svg width="13" height="13" viewBox="0 0 13 13" fill="none" xmlns="http://www.w3.org/2000/svg">
<g clip-path="url(#clip0_301_1943)">
<path d="M8.17429 8.66668C11.733 8.64718 13 6.76218 13 5.14585C12.9997 4.71254 12.8509 4.29243 12.5785 3.95546C12.3061 3.61849 11.9265 3.38501 11.5028 3.29389C11.5765 3.08427 11.6404 2.89197 11.6832 2.74627C11.7778 2.42936 11.7963 2.09464 11.7374 1.76922C11.6785 1.4438 11.5438 1.13683 11.3441 0.873183C11.1428 0.601204 10.8804 0.380434 10.5779 0.228741C10.2755 0.077047 9.94156 -0.00130825 9.60321 1.65231e-05H3.39679C3.05844 -0.00130825 2.72453 0.077047 2.42208 0.228741C2.11963 0.380434 1.85715 0.601204 1.65588 0.873183C1.45622 1.13683 1.32148 1.4438 1.26257 1.76922C1.20366 2.09464 1.22223 2.42936 1.31679 2.74627C1.35958 2.89197 1.42513 3.08427 1.49717 3.29389C1.07355 3.38501 0.693925 3.61849 0.421513 3.95546C0.149101 4.29243 0.000339235 4.71254 0 5.14585C0 6.76218 1.26696 8.64718 4.82571 8.66668C4.85734 8.83112 4.87384 8.99811 4.875 9.16556V10.8333C4.88431 10.978 4.86266 11.123 4.81151 11.2587C4.76036 11.3943 4.68088 11.5175 4.57837 11.62C4.47585 11.7226 4.35266 11.802 4.217 11.8532C4.08135 11.9043 3.93635 11.926 3.79167 11.9167H3.25C3.10634 11.9167 2.96857 11.9738 2.86698 12.0753C2.7654 12.1769 2.70833 12.3147 2.70833 12.4583C2.70833 12.602 2.7654 12.7398 2.86698 12.8414C2.96857 12.9429 3.10634 13 3.25 13H9.75C9.89366 13 10.0314 12.9429 10.133 12.8414C10.2346 12.7398 10.2917 12.602 10.2917 12.4583C10.2917 12.3147 10.2346 12.1769 10.133 12.0753C10.0314 11.9738 9.89366 11.9167 9.75 11.9167H9.21267C9.06768 11.9265 8.92228 11.9052 8.78618 11.8542C8.65007 11.8033 8.52641 11.7239 8.42345 11.6214C8.32049 11.5188 8.24061 11.3955 8.18914 11.2596C8.13767 11.1237 8.11581 10.9784 8.125 10.8333V9.16502C8.12618 8.99775 8.14268 8.83094 8.17429 8.66668ZM11.1042 4.33335C11.3197 4.33335 11.5263 4.41895 11.6787 4.57133C11.8311 4.7237 11.9167 4.93036 11.9167 5.14585C11.9167 6.2476 11.0451 7.42085 8.64717 7.5671C8.7671 7.40341 8.90561 7.25418 9.05992 7.12239C9.92334 6.34455 10.6115 5.392 11.0787 4.32793C11.0874 4.32847 11.095 4.33335 11.1042 4.33335ZM1.08333 5.14585C1.08333 4.93036 1.16894 4.7237 1.32131 4.57133C1.47368 4.41895 1.68034 4.33335 1.89583 4.33335C1.90504 4.33335 1.91263 4.32847 1.92129 4.32793C2.38851 5.392 3.07666 6.34455 3.94008 7.12239C4.09439 7.25418 4.2329 7.40341 4.35283 7.5671C1.95488 7.42085 1.08333 6.2476 1.08333 5.14585ZM5.69454 11.9167C5.87362 11.5841 5.96444 11.2111 5.95833 10.8333V9.16556C5.96021 8.62056 5.8434 8.08168 5.616 7.58639C5.3886 7.09109 5.05608 6.65125 4.64154 6.29743C3.54008 5.24473 2.7493 3.90941 2.35571 2.43752C2.30946 2.28215 2.30056 2.11806 2.32974 1.95861C2.35892 1.79915 2.42535 1.64885 2.52363 1.51993C2.62467 1.38372 2.75637 1.27321 2.90807 1.19736C3.05977 1.12151 3.22719 1.08246 3.39679 1.08335H9.60321C9.77299 1.08271 9.94054 1.1221 10.0922 1.19833C10.244 1.27456 10.3756 1.38548 10.4764 1.5221C10.5746 1.65101 10.6411 1.80132 10.6703 1.96077C10.6994 2.12023 10.6905 2.28432 10.6443 2.43968C10.2503 3.9108 9.45958 5.24533 8.35846 6.29743C7.94393 6.65114 7.61141 7.09089 7.38401 7.58609C7.15661 8.0813 7.03979 8.6201 7.04167 9.16502V10.8333C7.03556 11.2111 7.12638 11.5841 7.30546 11.9167H5.69454Z" fill="#FF676E"/>
</g>
<defs>
<clipPath id="clip0_301_1943">
<rect width="13" height="13" fill="white"/>
</clipPath>
</defs>
</svg>
