<svg width="17" height="21" viewBox="0 0 17 21" fill="none" xmlns="http://www.w3.org/2000/svg">
<path d="M11.6667 13.8333C11.6667 14.0544 11.5789 14.2663 11.4226 14.4226C11.2663 14.5789 11.0543 14.6667 10.8333 14.6667H9.16667V16.3333C9.16667 16.5543 9.07887 16.7663 8.92259 16.9226C8.76631 17.0789 8.55435 17.1667 8.33333 17.1667C8.11232 17.1667 7.90036 17.0789 7.74408 16.9226C7.5878 16.7663 7.5 16.5543 7.5 16.3333V14.6667H5.83333C5.61232 14.6667 5.40036 14.5789 5.24408 14.4226C5.0878 14.2663 5 14.0544 5 13.8333C5 13.6123 5.0878 13.4004 5.24408 13.2441C5.40036 13.0878 5.61232 13 5.83333 13H7.5V11.3333C7.5 11.1123 7.5878 10.9004 7.74408 10.7441C7.90036 10.5878 8.11232 10.5 8.33333 10.5C8.55435 10.5 8.76631 10.5878 8.92259 10.7441C9.07887 10.9004 9.16667 11.1123 9.16667 11.3333V13H10.8333C11.0543 13 11.2663 13.0878 11.4226 13.2441C11.5789 13.4004 11.6667 13.6123 11.6667 13.8333ZM16.6667 9.2375V16.3333C16.6653 17.438 16.2259 18.497 15.4448 19.2782C14.6637 20.0593 13.6047 20.4987 12.5 20.5H4.16667C3.062 20.4987 2.00296 20.0593 1.22185 19.2782C0.440735 18.497 0.00132321 17.438 0 16.3333V4.66667C0.00132321 3.56201 0.440735 2.50297 1.22185 1.72185C2.00296 0.940739 3.062 0.501327 4.16667 0.500004H7.92917C8.69552 0.498032 9.45465 0.647994 10.1627 0.94122C10.8707 1.23445 11.5136 1.66512 12.0542 2.20834L14.9575 5.11334C15.501 5.65354 15.932 6.29622 16.2254 7.00415C16.5187 7.71208 16.6687 8.47119 16.6667 9.2375ZM10.8758 3.38667C10.6136 3.13264 10.3191 2.91411 10 2.73667V6.33334C10 6.55435 10.0878 6.76631 10.2441 6.92259C10.4004 7.07887 10.6123 7.16667 10.8333 7.16667H14.43C14.2525 6.84766 14.0336 6.55346 13.7792 6.29167L10.8758 3.38667ZM15 9.2375C15 9.1 14.9733 8.96834 14.9608 8.83334H10.8333C10.1703 8.83334 9.53441 8.56995 9.06557 8.1011C8.59672 7.63226 8.33333 6.99638 8.33333 6.33334V2.20584C8.19833 2.19334 8.06583 2.16667 7.92917 2.16667H4.16667C3.50363 2.16667 2.86774 2.43006 2.3989 2.8989C1.93006 3.36774 1.66667 4.00363 1.66667 4.66667V16.3333C1.66667 16.9964 1.93006 17.6323 2.3989 18.1011C2.86774 18.5699 3.50363 18.8333 4.16667 18.8333H12.5C13.163 18.8333 13.7989 18.5699 14.2678 18.1011C14.7366 17.6323 15 16.9964 15 16.3333V9.2375Z" fill="#8B8B8B"/>
</svg>
