<svg width="28" height="28" viewBox="0 0 28 28" fill="none" xmlns="http://www.w3.org/2000/svg">
    <g clip-path="url(#clip0_468_450)">
        <path
            d="M11.3125 14.2083C10.6821 14.2083 10.0658 14.0214 9.54162 13.6711C9.01744 13.3209 8.60889 12.8231 8.36763 12.2406C8.12638 11.6582 8.06326 11.0173 8.18625 10.399C8.30924 9.78067 8.61282 9.21271 9.0586 8.76693C9.50438 8.32115 10.0723 8.01757 10.6906 7.89458C11.309 7.77159 11.9499 7.83471 12.5323 8.07597C13.1147 8.31722 13.6126 8.72577 13.9628 9.24995C14.3131 9.77414 14.5 10.3904 14.5 11.0208C14.4991 11.8659 14.1629 12.6761 13.5654 13.2737C12.9678 13.8713 12.1576 14.2074 11.3125 14.2083V14.2083ZM11.3125 9.25C10.9623 9.25 10.6199 9.35386 10.3287 9.54844C10.0375 9.74302 9.81049 10.0196 9.67646 10.3432C9.54243 10.6667 9.50736 11.0228 9.57569 11.3663C9.64402 11.7098 9.81268 12.0253 10.0603 12.273C10.308 12.5207 10.6235 12.6893 10.967 12.7576C11.3105 12.826 11.6666 12.7909 11.9902 12.6569C12.3137 12.5228 12.5903 12.2959 12.7849 12.0047C12.9795 11.7134 13.0833 11.3711 13.0833 11.0208C13.0833 10.5512 12.8968 10.1008 12.5647 9.76867C12.2326 9.43657 11.7822 9.25 11.3125 9.25ZM16.625 21.2917V20.9375C16.625 19.5285 16.0653 18.1773 15.069 17.181C14.0727 16.1847 12.7215 15.625 11.3125 15.625C9.90354 15.625 8.55228 16.1847 7.556 17.181C6.55971 18.1773 6 19.5285 6 20.9375L6 21.2917C6 21.4795 6.07463 21.6597 6.20747 21.7925C6.3403 21.9254 6.52047 22 6.70833 22C6.89619 22 7.07636 21.9254 7.2092 21.7925C7.34204 21.6597 7.41667 21.4795 7.41667 21.2917V20.9375C7.41667 19.9043 7.82712 18.9133 8.55773 18.1827C9.28834 17.4521 10.2793 17.0417 11.3125 17.0417C12.3457 17.0417 13.3367 17.4521 14.0673 18.1827C14.7979 18.9133 15.2083 19.9043 15.2083 20.9375V21.2917C15.2083 21.4795 15.283 21.6597 15.4158 21.7925C15.5486 21.9254 15.7288 22 15.9167 22C16.1045 22 16.2847 21.9254 16.4175 21.7925C16.5504 21.6597 16.625 21.4795 16.625 21.2917ZM23 17.75C23 16.7928 22.7229 15.8561 22.2022 15.0529C21.6815 14.2498 20.9395 13.6145 20.0657 13.2237C19.1919 12.833 18.2237 12.7035 17.2779 12.851C16.3321 12.9984 15.4493 13.4165 14.7359 14.0546C14.6656 14.1164 14.6082 14.1915 14.5671 14.2755C14.526 14.3596 14.502 14.451 14.4964 14.5444C14.4908 14.6378 14.5037 14.7314 14.5345 14.8197C14.5653 14.9081 14.6133 14.9895 14.6757 15.0592C14.7381 15.1289 14.8137 15.1856 14.8982 15.2259C14.9826 15.2662 15.0742 15.2894 15.1676 15.2941C15.2611 15.2989 15.3546 15.285 15.4426 15.2534C15.5307 15.2218 15.6117 15.1731 15.6808 15.11C16.1904 14.6543 16.821 14.3558 17.4965 14.2506C18.172 14.1454 18.8636 14.2379 19.4877 14.517C20.1117 14.7962 20.6417 15.2499 21.0136 15.8236C21.3854 16.3973 21.5833 17.0663 21.5833 17.75C21.5833 17.9379 21.658 18.118 21.7908 18.2509C21.9236 18.3837 22.1038 18.4583 22.2917 18.4583C22.4795 18.4583 22.6597 18.3837 22.7925 18.2509C22.9254 18.118 23 17.9379 23 17.75ZM18.3958 11.375C17.7654 11.375 17.1491 11.1881 16.625 10.8378C16.1008 10.4876 15.6922 9.98974 15.451 9.40731C15.2097 8.82487 15.1466 8.18397 15.2696 7.56565C15.3926 6.94734 15.6962 6.37938 16.1419 5.9336C16.5877 5.48782 17.1557 5.18424 17.774 5.06125C18.3923 4.93826 19.0332 5.00138 19.6156 5.24264C20.1981 5.48389 20.6959 5.89244 21.0461 6.41662C21.3964 6.9408 21.5833 7.55707 21.5833 8.1875C21.5824 9.03259 21.2463 9.8428 20.6487 10.4404C20.0511 11.0379 19.2409 11.3741 18.3958 11.375V11.375ZM18.3958 6.41667C18.0456 6.41667 17.7032 6.52053 17.412 6.71511C17.1208 6.90969 16.8938 7.18626 16.7598 7.50983C16.6258 7.83341 16.5907 8.18947 16.659 8.53297C16.7274 8.87648 16.896 9.19201 17.1437 9.43967C17.3913 9.68733 17.7069 9.85598 18.0504 9.92431C18.3939 9.99264 18.7499 9.95757 19.0735 9.82354C19.3971 9.68951 19.6736 9.46254 19.8682 9.17132C20.0628 8.88011 20.1667 8.53774 20.1667 8.1875C20.1667 7.71785 19.9801 7.26743 19.648 6.93533C19.3159 6.60324 18.8655 6.41667 18.3958 6.41667V6.41667Z"
            fill="#FF676E" />
    </g>
    <defs>
        <clipPath id="clip0_468_450">
            <rect width="17" height="17" fill="#FF676E" transform="translate(6 5)" />
        </clipPath>
    </defs>
</svg>